# xmcd CD database file
#
# Track frame offsets:
#	150
#	3317
#	22152
#	40267
#	60627
#	78630
#	93017
#	95967
#	115937
#	134862
#	150125
#	172587
#	190222
#
# Disc length: 2874 seconds
#
# Revision: 2
# Processed by: cddbd v1.5.2PL0 Copyright (c) Steve Scherf et al.
# Submitted via: CDex 1.70beta2
#
DISCID=a00b380d
DTITLE=aile - PERSONALITY
DYEAR=2003
DGENRE=R&B
TTITLE0=Prelude
TTITLE1=Personality feat. BIGZAM
TTITLE2=No More Game feat. M.O.S.A.D.
TTITLE3=Don't U Wanna Stop!
TTITLE4=24-7
TTITLE5=BLOW MY MIND
TTITLE6=Disturb (Interlude)
TTITLE7=Delight feat. H.O.Z.E. (HB)
TTITLE8=Around The Way Girl
TTITLE9=Lover Or Friend?
TTITLE10=Mellow
TTITLE11=Finally
TTITLE12=The Only One
EXTD=YEAR: 2003
EXTT0=
EXTT1=
EXTT2=
EXTT3=
EXTT4=
EXTT5=
EXTT6=
EXTT7=
EXTT8=
EXTT9=
EXTT10=
EXTT11=
EXTT12=
PLAYORDER=
